<?xml version="1.0" encoding="UTF-8" standalone="no"?>
<!DOCTYPE svg PUBLIC "-//W3C//DTD SVG 1.1//EN" "http://www.w3.org/Graphics/SVG/1.1/DTD/svg11.dtd">
<svg width="100%" height="100%" viewBox="0 0 1280 1280" version="1.1" xmlns="http://www.w3.org/2000/svg" xmlns:xlink="http://www.w3.org/1999/xlink" xml:space="preserve" xmlns:serif="http://www.serif.com/" style="fill-rule:evenodd;clip-rule:evenodd;stroke-linejoin:round;stroke-miterlimit:2;">
    <g transform="matrix(1,0,0,1,32.9508,-8.96298)">
        <g transform="matrix(1.88953,0,0,1.88953,174.514,89.5511)">
            <path d="M440.34,211.478C447.568,209.472 455.185,208.399 463.052,208.399C479.755,208.399 495.338,213.235 508.475,221.582C493.768,246.538 466.668,263.327 435.667,263.458L435.302,263.458C433.182,263.458 431.081,263.38 429.001,263.227L428.788,263.551C392.648,354.44 305.84,420.13 202.929,426.392C196.931,426.757 192.151,426.906 186.71,426.906C17.51,426.906 -0.342,298.826 -0.342,255.059L310.965,255.059C380.725,255.059 395,242.572 395.298,242.178C388.188,230.71 384.082,217.192 384.082,202.722C384.082,184.943 390.28,168.601 400.631,155.74C421.614,166.647 436.807,187.182 440.34,211.478ZM102.898,298.791C118.274,298.791 130.756,311.274 130.756,326.649C130.756,342.024 118.274,354.507 102.898,354.507C87.523,354.507 75.04,342.024 75.04,326.649C75.04,311.274 87.523,298.791 102.898,298.791ZM102.898,312.297C110.819,312.297 117.25,318.728 117.25,326.649C117.25,334.57 110.819,341.001 102.898,341.001C94.977,341.001 88.546,334.57 88.546,326.649C88.546,318.728 94.977,312.297 102.898,312.297Z" style="fill:rgb(23,195,250);"/>
        </g>
        <g transform="matrix(2.11197,0,0,2.11197,169.128,177.014)">
            <path d="M191.911,343.903C191.911,343.903 191.886,197.7 191.886,149.187C191.886,138.083 200.884,129.081 211.988,129.076C236.329,129.065 274.11,129.048 274.11,129.048L274.11,149.048L211.886,149.048L211.813,343.903L211.963,343.952C224.708,348.17 233.906,360.194 233.906,374.349C233.906,388.559 224.636,400.621 211.813,404.795L211.813,448.898C215.821,448.145 219.805,446.942 223.703,445.263C237.326,439.393 248.068,428.369 253.584,414.602L241.911,409.859L276.058,383.461L282.119,426.195L270.91,421.641C263.546,439.957 249.239,454.624 231.103,462.437C193.347,478.703 149.584,461.448 133.048,423.891L121.605,428.821L126.771,385.97L161.463,411.649L150.224,416.491C158.091,434.235 174.076,445.909 191.911,449.021L191.911,404.795L191.761,404.746C179.016,400.527 169.818,388.504 169.818,374.349C169.818,360.138 179.088,348.076 191.911,343.903ZM211.899,386.82L211.813,386.888C209.084,389.072 205.624,390.371 201.862,390.371C198.129,390.371 194.693,389.092 191.975,386.939L191.911,386.888C188.21,383.962 185.84,379.43 185.84,374.349C185.84,369.268 188.21,364.736 191.911,361.809L191.975,361.758C194.693,359.606 198.129,358.327 201.862,358.327C205.594,358.327 209.03,359.606 211.749,361.758L211.813,361.809C215.514,364.736 217.884,369.268 217.884,374.349C217.884,379.39 215.55,383.891 211.899,386.82ZM187.284,154.849L166.588,154.849L166.588,174.849L187.284,174.849L187.284,154.849ZM217.455,154.849L217.455,174.849L292.783,174.849L292.783,154.849L217.455,154.849Z" style="fill:rgb(46,120,142);"/>
        </g>
        <g transform="matrix(1.95957,0,0,1.95957,153.507,171.633)">
            <path d="M165.827,132.855L107.157,132.855L107.157,191.525L165.827,191.525L165.827,132.855ZM95.797,132.855L37.127,132.855L37.127,191.525L95.797,191.525L95.797,132.855ZM303.768,64.144L245.098,64.144L245.098,122.814L303.768,122.814L303.768,64.144ZM233.738,64.144L175.068,64.144L175.068,122.814L233.738,122.814L233.738,64.144ZM165.827,64.144L107.157,64.144L107.157,122.814L165.827,122.814L165.827,64.144ZM303.768,-4.78L245.098,-4.78L245.098,53.891L303.768,53.891L303.768,-4.78Z" style="fill:rgb(46,120,142);"/>
        </g>
    </g>
</svg>
