<?xml version="1.0" encoding="UTF-8" standalone="no"?>
<!DOCTYPE svg PUBLIC "-//W3C//DTD SVG 1.1//EN" "http://www.w3.org/Graphics/SVG/1.1/DTD/svg11.dtd">
<svg width="100%" height="100%" viewBox="0 0 506 505" version="1.1" xmlns="http://www.w3.org/2000/svg" xmlns:xlink="http://www.w3.org/1999/xlink" xml:space="preserve" xmlns:serif="http://www.serif.com/" style="fill-rule:evenodd;clip-rule:evenodd;stroke-linejoin:round;stroke-miterlimit:2;">
    <g transform="matrix(-1.1501,0,0,1.34618,476.716,-127.039)">
        <path d="M26.594,417.247C61.294,396.595 105.019,385.166 146.963,389.792C175.715,392.963 200.588,403.271 225.488,413.605C246.354,422.265 267.221,431.017 291.799,432.819C326.112,435.335 360.515,422.532 389.864,405.326L412.166,433.093C375.278,454.719 331.556,469.533 288.429,466.371C258.814,464.2 233.407,454.33 208.265,443.896C187.157,435.136 166.291,425.879 141.917,423.19C109.529,419.618 75.92,428.931 49.126,444.879L26.594,417.247Z" style="fill:rgb(23,195,250);"/>
    </g>
    <g transform="matrix(1,0,0,1,-29.8903,4.77954)">
        <path d="M224.042,431.546C219.48,420.863 213.156,404.338 208.536,385.492C213.257,385.481 217.491,385.342 222.747,385.022C238.383,384.071 253.613,381.621 268.281,377.817C271.428,389.193 275.271,399.139 278.262,406.118C296.841,398.165 316.073,391.655 337.072,388.944L343.9,441.839C316.312,445.4 292.72,457.737 268.828,469.343C239.478,483.6 209.798,497.02 175.226,499.986L170.667,446.848C190.032,445.187 207.344,439.014 224.042,431.546Z" style="fill:rgb(20,170,209);"/>
    </g>
    <g transform="matrix(0.99387,0,0,0.99387,0.340285,-47.8002)">
        <path d="M440.34,211.478C447.568,209.472 455.185,208.399 463.052,208.399C479.755,208.399 495.338,213.235 508.475,221.582C493.768,246.538 466.668,263.327 435.667,263.458L435.302,263.458C433.182,263.458 431.081,263.38 429.001,263.227L428.788,263.551C392.648,354.44 305.84,420.13 202.929,426.392C196.931,426.757 192.151,426.906 186.71,426.906C17.51,426.906 -0.342,298.826 -0.342,255.059L310.965,255.059C380.725,255.059 395,242.572 395.298,242.178C388.188,230.71 384.082,217.192 384.082,202.722C384.082,184.943 390.28,168.601 400.631,155.74C421.614,166.647 436.807,187.182 440.34,211.478ZM102.898,298.791C118.274,298.791 130.756,311.274 130.756,326.649C130.756,342.024 118.274,354.507 102.898,354.507C87.523,354.507 75.04,342.024 75.04,326.649C75.04,311.274 87.523,298.791 102.898,298.791ZM102.898,312.297C110.819,312.297 117.25,318.728 117.25,326.649C117.25,334.57 110.819,341.001 102.898,341.001C94.977,341.001 88.546,334.57 88.546,326.649C88.546,318.728 94.977,312.297 102.898,312.297Z" style="fill:rgb(23,195,250);"/>
    </g>
    <g transform="matrix(1,0,0,1,-29.8903,4.77954)">
        <path d="M303.768,132.855L245.098,132.855L245.098,191.525L303.768,191.525L303.768,132.855ZM233.738,132.855L175.068,132.855L175.068,191.525L233.738,191.525L233.738,132.855ZM165.827,132.855L107.157,132.855L107.157,191.525L165.827,191.525L165.827,132.855ZM95.797,132.855L37.127,132.855L37.127,191.525L95.797,191.525L95.797,132.855ZM374.402,132.855L315.732,132.855L315.732,191.525L374.402,191.525L374.402,132.855ZM303.768,64.144L245.098,64.144L245.098,122.814L303.768,122.814L303.768,64.144ZM233.738,64.144L175.068,64.144L175.068,122.814L233.738,122.814L233.738,64.144ZM165.827,64.144L107.157,64.144L107.157,122.814L165.827,122.814L165.827,64.144ZM303.768,-4.78L245.098,-4.78L245.098,53.891L303.768,53.891L303.768,-4.78Z" style="fill:rgb(20,170,209);"/>
    </g>
</svg>
